<?xml version="1.0" encoding="utf-8"?>
<!-- Generator: Adobe Illustrator 16.0.0, SVG Export Plug-In . SVG Version: 6.00 Build 0)  -->
<!DOCTYPE svg PUBLIC "-//W3C//DTD SVG 1.1//EN" "http://www.w3.org/Graphics/SVG/1.1/DTD/svg11.dtd">
<svg version="1.1" id="Layer_1" xmlns="http://www.w3.org/2000/svg" xmlns:xlink="http://www.w3.org/1999/xlink" x="0px" y="0px"
	 width="32px" height="32px" viewBox="0 0 32 32" enable-background="new 0 0 32 32" xml:space="preserve">
<path d="M2,16c0,1.104,0.896,2,2,2h19.2l-4.62,4.62C18.186,23.014,18,23.484,18,24c0,0.984,0.812,2,2,2
	c0.531,0,0.994-0.193,1.38-0.58l7.974-7.973C29.721,17.08,30,16.729,30,16c0-0.729-0.334-1.134-0.662-1.462L21.38,6.58
	C20.994,6.193,20.531,6,20,6c-1.188,0-2,1.016-2,2c0,0.516,0.186,0.986,0.58,1.38L23.2,14H4C2.896,14,2,14.896,2,16z"/>
</svg>
